<svg id="Layer_1" data-name="Layer 1" xmlns="http://www.w3.org/2000/svg" viewBox="0 0 368.41 87.16"><defs><style>.cls-1{fill:#662d91;}.cls-2{fill:#ffcc05;}.cls-3{fill:#fff;}</style></defs><title>Artboard 2 copy</title><path class="cls-1" d="M122.55,32.63a3.77,3.77,0,0,1-4.73,1.79h0a7.68,7.68,0,0,0-2.85-.58,4.66,4.66,0,0,0-2.86.83,2.58,2.58,0,0,0-1.1,2.16,2.12,2.12,0,0,0,.55,1.52,4.78,4.78,0,0,0,1.45,1,12,12,0,0,0,2,.76c.75.21,1.49.44,2.23.69a13.93,13.93,0,0,1,6.47,3.94,9.73,9.73,0,0,1,2.05,6.42,12.45,12.45,0,0,1-.9,4.83,10.07,10.07,0,0,1-2.62,3.71A12.08,12.08,0,0,1,118,62.12a17.58,17.58,0,0,1-5.69.86,20.92,20.92,0,0,1-12.2-3.92l1.25-2.35A5.11,5.11,0,0,1,108,54.44l0,0a9.65,9.65,0,0,0,3.91.87,4.65,4.65,0,0,0,3.29-1,3.07,3.07,0,0,0,1.08-2.3,3.17,3.17,0,0,0-.27-1.36,3,3,0,0,0-.92-1.06,7.64,7.64,0,0,0-1.68-.9c-.69-.27-1.53-.58-2.51-.92-1.17-.37-2.31-.77-3.43-1.22a10.7,10.7,0,0,1-3-1.77A8.14,8.14,0,0,1,102.35,42a9.79,9.79,0,0,1-.81-4.25,12.31,12.31,0,0,1,.85-4.68,10.25,10.25,0,0,1,6.17-5.91,14.14,14.14,0,0,1,5-.83,22.06,22.06,0,0,1,5.38.71,23.45,23.45,0,0,1,5.39,2.1Z"/><path class="cls-1" d="M129.16,38.39h5.44a2.9,2.9,0,0,1,2.9,2.9h0A10.77,10.77,0,0,1,145.14,38a8.88,8.88,0,0,1,8,4.42,8.92,8.92,0,0,1,8-4.46,10,10,0,0,1,3.13.48A6.42,6.42,0,0,1,166.83,40a7.44,7.44,0,0,1,1.68,2.69,11.57,11.57,0,0,1,.62,4V62h-3.29a5,5,0,0,1-5.05-5v-6.6a14.09,14.09,0,0,0-.25-3,4.58,4.58,0,0,0-.74-1.79,2.46,2.46,0,0,0-1.12-.88,4.16,4.16,0,0,0-1.38-.23c-2.68,0-4,2-4,5.85V62H150a5,5,0,0,1-5-5v-6.6a16.12,16.12,0,0,0-.23-3,5.64,5.64,0,0,0-.67-1.86,2.25,2.25,0,0,0-1.13-1,4.65,4.65,0,0,0-1.61-.25,4.71,4.71,0,0,0-1.47.23,2.55,2.55,0,0,0-1.22.9,4.77,4.77,0,0,0-.83,1.84,12.7,12.7,0,0,0-.3,3.06V62h-8.34Z"/><path class="cls-1" d="M193.94,38.39h6V62h-5.75a2.62,2.62,0,0,1-2.62-2.63h0a8.74,8.74,0,0,1-7.23,3.37,11.78,11.78,0,0,1-4.75-1,11.35,11.35,0,0,1-3.77-2.65,12.12,12.12,0,0,1-2.51-4,13.7,13.7,0,0,1-.9-5,13.16,13.16,0,0,1,.88-4.81,12.13,12.13,0,0,1,2.44-4,11.32,11.32,0,0,1,8.52-3.69,9.63,9.63,0,0,1,7.32,3.09h0A2.35,2.35,0,0,1,193.94,38.39ZM181.1,50.13a5.59,5.59,0,0,0,.41,2.14A5.51,5.51,0,0,0,182.64,54a5.16,5.16,0,0,0,1.7,1.15,5.62,5.62,0,0,0,2.14.41,5.5,5.5,0,0,0,2.1-.41,5.06,5.06,0,0,0,1.7-1.15,5.78,5.78,0,0,0,1.15-1.71,4.81,4.81,0,0,0,.44-2.07,5,5,0,0,0-.44-2.09,5.75,5.75,0,0,0-1.15-1.73,5.06,5.06,0,0,0-1.7-1.15,5.31,5.31,0,0,0-2.1-.41,5.44,5.44,0,0,0-2.14.41,5.16,5.16,0,0,0-1.7,1.15,5.64,5.64,0,0,0-1.13,1.68A5.14,5.14,0,0,0,181.1,50.13Z"/><path class="cls-1" d="M204.16,38.39h4.47a3.87,3.87,0,0,1,3.87,3.87h0a8.09,8.09,0,0,1,3.27-2.74,8.8,8.8,0,0,1,4.51-1.13H221a5.25,5.25,0,0,1,.9.09v4.71a2,2,0,0,1-2.31,2,7.8,7.8,0,0,0-1.28-.1A5.36,5.36,0,0,0,214,46.84a7.63,7.63,0,0,0-1.45,5V62h-8.34Z"/><path class="cls-1" d="M235.79,45.34V62h-8.33V45.34H224.7v-7h2.76V31.3h1.24a7.08,7.08,0,0,1,7.09,7.09h4.75v7Z"/><path class="cls-1" d="M272.07,26.33h8.34V41.38a9,9,0,0,1,3.45-2.78,10.69,10.69,0,0,1,4.1-.72c3,0,5.22.83,6.74,2.47A9.4,9.4,0,0,1,297,47V62H293.4a4.76,4.76,0,0,1-4.75-4.76V50.08a12.61,12.61,0,0,0-.28-2.9,3.36,3.36,0,0,0-.92-1.7,4,4,0,0,0-2.67-1,4.16,4.16,0,0,0-3.25,1.27,5.26,5.26,0,0,0-1.12,3.61V62h-8.34Z"/><path class="cls-1" d="M308.67,51.6c0,3.6,1.69,5.39,5.07,5.39a4.53,4.53,0,0,0,4.1-2.21h3.83a2.6,2.6,0,0,1,2,4.26q-3.26,3.84-10,3.84a16.28,16.28,0,0,1-5.48-.89A12.2,12.2,0,0,1,304,59.43a11.13,11.13,0,0,1-2.74-4,13.08,13.08,0,0,1-1-5.16,14.64,14.64,0,0,1,.92-5.31,11.17,11.17,0,0,1,2.62-4,11.64,11.64,0,0,1,4.12-2.56,15.6,15.6,0,0,1,5.46-.89,15.24,15.24,0,0,1,5.39.89,11.08,11.08,0,0,1,4.05,2.6,11.39,11.39,0,0,1,2.53,4.17,16.57,16.57,0,0,1,.88,5.55v.87Zm9.77-4.83A5,5,0,0,0,316.73,44a4.8,4.8,0,0,0-3.13-1.06,4.73,4.73,0,0,0-3.15,1,4.5,4.5,0,0,0-1.54,2.85Z"/><path class="cls-1" d="M337.82,26.33V62h-4.51a3.83,3.83,0,0,1-3.83-3.82V26.33Z"/><path class="cls-1" d="M352.55,45.34V57.66A4.35,4.35,0,0,1,348.2,62h-4V45.34h-3v-4a3,3,0,0,1,3-3h0V36.92a16.07,16.07,0,0,1,.55-4.7,8.58,8.58,0,0,1,1.47-2.74,11.22,11.22,0,0,1,2.37-2.19,11.35,11.35,0,0,1,2.93-1.42,9.89,9.89,0,0,1,3.08-.51,8,8,0,0,1,2,.23,10.78,10.78,0,0,1,1.82.65v7.27a9.18,9.18,0,0,0-1.54-.62,5.33,5.33,0,0,0-1.5-.21,3.51,3.51,0,0,0-1,.16,2.27,2.27,0,0,0-1,.67,2.9,2.9,0,0,0-.62,1.45,15.67,15.67,0,0,0-.16,2.56v.87h5.85v7Z"/><path class="cls-1" d="M265.46,32.63a3.77,3.77,0,0,1-4.73,1.79h0a7.68,7.68,0,0,0-2.85-.58,4.66,4.66,0,0,0-2.86.83,2.58,2.58,0,0,0-1.1,2.16,2.12,2.12,0,0,0,.55,1.52,4.78,4.78,0,0,0,1.45,1,12,12,0,0,0,2,.76c.75.21,1.49.44,2.23.69a13.93,13.93,0,0,1,6.47,3.94,9.73,9.73,0,0,1,2.05,6.42,12.45,12.45,0,0,1-.9,4.83,10,10,0,0,1-2.63,3.71,11.94,11.94,0,0,1-4.23,2.39,17.62,17.62,0,0,1-5.69.86A20.92,20.92,0,0,1,243,59.06l1.25-2.35a5.1,5.1,0,0,1,6.58-2.27l0,0a9.7,9.7,0,0,0,3.92.87,4.65,4.65,0,0,0,3.29-1,3.07,3.07,0,0,0,1.08-2.3,3.17,3.17,0,0,0-.27-1.36A3,3,0,0,0,258,49.6a7.64,7.64,0,0,0-1.68-.9c-.69-.27-1.52-.58-2.51-.92-1.16-.37-2.31-.77-3.43-1.22a10.65,10.65,0,0,1-3-1.77A8.3,8.3,0,0,1,245.25,42a10,10,0,0,1-.8-4.25,12.31,12.31,0,0,1,.85-4.68,10.18,10.18,0,0,1,6.17-5.91,14.1,14.1,0,0,1,5-.83,22.12,22.12,0,0,1,5.38.71,23.63,23.63,0,0,1,5.39,2.1Z"/><rect class="cls-1" x="9.05" y="9.31" width="69.73" height="69.73" rx="20.61"/><path class="cls-2" d="M50,53.83l-2.2-.35a6,6,0,0,0-5.21,1.7L34,63.72a3.59,3.59,0,0,1-5.07,0L17.3,52.09a3.59,3.59,0,0,1,0-5.07l9.9-9.9a6,6,0,0,1,8.55,0L50.81,52.18A1,1,0,0,1,50,53.83Z"/><path class="cls-3" d="M37.85,34.51l2.2.34a6,6,0,0,0,5.21-1.69l8.55-8.55a3.59,3.59,0,0,1,5.07,0L70.52,36.25a3.6,3.6,0,0,1,0,5.07l-9.91,9.9a6,6,0,0,1-8.54,0L37,36.16A1,1,0,0,1,37.85,34.51Z"/></svg>