<svg id="Layer_1" data-name="Layer 1" xmlns="http://www.w3.org/2000/svg" viewBox="0 0 294.75 195.27"><defs><style>.cls-1{fill:#662d91;}.cls-2{fill:#ffcc05;}.cls-3{fill:#fff;}</style></defs><title>Artboard 2</title><path class="cls-1" d="M38.9,155.77a3.76,3.76,0,0,1-4.73,1.8h0a7.69,7.69,0,0,0-2.86-.58,4.65,4.65,0,0,0-2.85.83,2.56,2.56,0,0,0-1.1,2.16,2.14,2.14,0,0,0,.55,1.52,4.78,4.78,0,0,0,1.45,1,13.12,13.12,0,0,0,2,.76c.76.21,1.5.44,2.24.69a13.91,13.91,0,0,1,6.47,3.94,9.73,9.73,0,0,1,2,6.42,12.45,12.45,0,0,1-.89,4.83,10.1,10.1,0,0,1-2.63,3.71,12.1,12.1,0,0,1-4.23,2.39,17.63,17.63,0,0,1-5.69.85,20.89,20.89,0,0,1-12.2-3.91l1.25-2.35a5.1,5.1,0,0,1,6.58-2.27l0,0a9.7,9.7,0,0,0,3.92.87,4.69,4.69,0,0,0,3.29-1,3.09,3.09,0,0,0,1.08-2.3,3,3,0,0,0-.28-1.36,2.83,2.83,0,0,0-.92-1.06,7.64,7.64,0,0,0-1.68-.9c-.69-.27-1.53-.58-2.51-.92-1.16-.37-2.31-.77-3.43-1.22a10.89,10.89,0,0,1-3-1.77,8.4,8.4,0,0,1-2.12-2.79,10,10,0,0,1-.8-4.26,12.29,12.29,0,0,1,.85-4.67,10.37,10.37,0,0,1,2.39-3.59,10.78,10.78,0,0,1,3.78-2.33,14.31,14.31,0,0,1,5-.82,21.66,21.66,0,0,1,5.39.71,24.07,24.07,0,0,1,5.39,2.09Z"/><path class="cls-1" d="M45.51,161.54h5.43a2.9,2.9,0,0,1,2.9,2.9h0a10.8,10.8,0,0,1,7.65-3.27,8.88,8.88,0,0,1,8,4.42,8.93,8.93,0,0,1,8-4.47,10.06,10.06,0,0,1,3.13.49,6.38,6.38,0,0,1,2.53,1.52,7.18,7.18,0,0,1,1.68,2.69,11.34,11.34,0,0,1,.62,4v15.33H82.19a5,5,0,0,1-5-5v-6.6a14.09,14.09,0,0,0-.25-2.95,4.73,4.73,0,0,0-.74-1.79,2.49,2.49,0,0,0-1.13-.88,4.16,4.16,0,0,0-1.38-.23q-4,0-4,5.85v11.65H66.35a5,5,0,0,1-5-5v-6.6a15.29,15.29,0,0,0-.23-3,5.57,5.57,0,0,0-.66-1.87,2.27,2.27,0,0,0-1.13-.94,4.65,4.65,0,0,0-1.61-.25,4.46,4.46,0,0,0-1.48.23,2.55,2.55,0,0,0-1.22.9,4.85,4.85,0,0,0-.83,1.84,12.7,12.7,0,0,0-.3,3.06v11.65H45.51Z"/><path class="cls-1" d="M110.29,161.54h6v23.62h-5.75a2.63,2.63,0,0,1-2.63-2.63h0a8.75,8.75,0,0,1-7.23,3.36A11.7,11.7,0,0,1,96,185a11.35,11.35,0,0,1-3.77-2.65,12.12,12.12,0,0,1-2.51-4,13.7,13.7,0,0,1-.9-5,13.36,13.36,0,0,1,.87-4.81,12.63,12.63,0,0,1,2.44-4,11.68,11.68,0,0,1,3.73-2.69,11.4,11.4,0,0,1,4.79-1,9.6,9.6,0,0,1,7.32,3.09h0A2.35,2.35,0,0,1,110.29,161.54ZM97.45,173.28a5.41,5.41,0,0,0,.41,2.14A5.51,5.51,0,0,0,99,177.15a5.06,5.06,0,0,0,1.7,1.15,5.59,5.59,0,0,0,2.14.41,5.5,5.5,0,0,0,2.1-.41,5.16,5.16,0,0,0,1.7-1.15,5.78,5.78,0,0,0,1.15-1.71,5,5,0,0,0,.44-2.07,5.12,5.12,0,0,0-.44-2.09,5.75,5.75,0,0,0-1.15-1.73,5,5,0,0,0-1.7-1.15,5.32,5.32,0,0,0-2.1-.42,5.41,5.41,0,0,0-2.14.42,4.92,4.92,0,0,0-1.7,1.15,5.64,5.64,0,0,0-1.13,1.68A5,5,0,0,0,97.45,173.28Z"/><path class="cls-1" d="M120.51,161.54H125a3.86,3.86,0,0,1,3.86,3.87h0a8,8,0,0,1,3.27-2.74,8.74,8.74,0,0,1,4.52-1.13h.71a5.25,5.25,0,0,1,.9.09v4.71a2,2,0,0,1-2.32,2,7.59,7.59,0,0,0-1.27-.1,5.38,5.38,0,0,0-4.36,1.73,7.69,7.69,0,0,0-1.45,5v10.13h-8.33Z"/><path class="cls-1" d="M152.14,168.49v16.67h-8.33V168.49H141v-7h2.77v-7.09h1.24a7.08,7.08,0,0,1,7.09,7.09h4.74v7Z"/><path class="cls-1" d="M188.42,149.48h8.33v15.05a9.08,9.08,0,0,1,3.46-2.78,10.67,10.67,0,0,1,4.09-.72q4.47,0,6.75,2.47a9.4,9.4,0,0,1,2.28,6.65v15h-3.58A4.76,4.76,0,0,1,205,180.4v-7.17a12.68,12.68,0,0,0-.27-2.9,3.44,3.44,0,0,0-.92-1.7,3.9,3.9,0,0,0-2.67-1,4.1,4.1,0,0,0-3.25,1.27,5.26,5.26,0,0,0-1.13,3.61v12.62h-8.33Z"/><path class="cls-1" d="M225,174.75q0,5.38,5.07,5.39a4.52,4.52,0,0,0,4.09-2.21H238a2.6,2.6,0,0,1,2,4.25Q236.77,186,230,186a16,16,0,0,1-5.48-.9,12.13,12.13,0,0,1-4.26-2.55,11.58,11.58,0,0,1-2.74-4,13.26,13.26,0,0,1-1-5.16,14.43,14.43,0,0,1,.92-5.31,11.08,11.08,0,0,1,2.62-4,11.64,11.64,0,0,1,4.12-2.56,15.55,15.55,0,0,1,5.46-.9,15.18,15.18,0,0,1,5.38.9,11,11,0,0,1,4.06,2.6,11.53,11.53,0,0,1,2.53,4.17,16.58,16.58,0,0,1,.87,5.55v.87Zm9.76-4.83a5,5,0,0,0-1.7-2.81,4.75,4.75,0,0,0-3.13-1.06,4.83,4.83,0,0,0-3.16,1,4.64,4.64,0,0,0-1.54,2.86Z"/><path class="cls-1" d="M254.17,149.48v35.68h-4.52a3.82,3.82,0,0,1-3.82-3.82V149.48Z"/><path class="cls-1" d="M268.9,168.49v12.32a4.35,4.35,0,0,1-4.35,4.35h-4V168.49h-3v-4a3,3,0,0,1,3-3h0v-1.48a16,16,0,0,1,.56-4.69,8.11,8.11,0,0,1,1.47-2.74,11,11,0,0,1,2.37-2.19,11.44,11.44,0,0,1,2.92-1.42,10,10,0,0,1,3.09-.51,8,8,0,0,1,2,.23,11.21,11.21,0,0,1,1.81.64v7.28a8.13,8.13,0,0,0-1.54-.62,5.21,5.21,0,0,0-1.49-.21,3.46,3.46,0,0,0-1,.16,2.27,2.27,0,0,0-1,.67,2.82,2.82,0,0,0-.62,1.45,15.62,15.62,0,0,0-.16,2.55v.88h5.84v7Z"/><path class="cls-1" d="M181.81,155.77a3.76,3.76,0,0,1-4.73,1.8h0a7.73,7.73,0,0,0-2.86-.58,4.65,4.65,0,0,0-2.85.83,2.57,2.57,0,0,0-1.11,2.16,2.14,2.14,0,0,0,.56,1.52,4.66,4.66,0,0,0,1.45,1,12.74,12.74,0,0,0,2,.76c.75.21,1.5.44,2.24.69a13.82,13.82,0,0,1,6.46,3.94,9.68,9.68,0,0,1,2,6.42,12.63,12.63,0,0,1-.89,4.83,10.1,10.1,0,0,1-2.63,3.71,12.06,12.06,0,0,1-4.24,2.39,17.52,17.52,0,0,1-5.68.85,20.89,20.89,0,0,1-12.2-3.91l1.25-2.35a5.1,5.1,0,0,1,6.58-2.27l0,0a9.69,9.69,0,0,0,3.91.87,4.72,4.72,0,0,0,3.3-1,3.09,3.09,0,0,0,1.08-2.3,3,3,0,0,0-.28-1.36,2.83,2.83,0,0,0-.92-1.06,7.64,7.64,0,0,0-1.68-.9c-.69-.27-1.53-.58-2.51-.92-1.17-.37-2.31-.77-3.43-1.22a10.75,10.75,0,0,1-3-1.77,8.27,8.27,0,0,1-2.12-2.79,9.81,9.81,0,0,1-.8-4.26,12.29,12.29,0,0,1,.85-4.67,10.23,10.23,0,0,1,2.39-3.59,10.78,10.78,0,0,1,3.78-2.33,14.27,14.27,0,0,1,5-.82,21.66,21.66,0,0,1,5.39.71,24.07,24.07,0,0,1,5.39,2.09Z"/><rect class="cls-1" x="86.62" y="14.7" width="117.96" height="117.96" rx="34.87"/><path class="cls-2" d="M155.85,90l-3.71-.59a10.22,10.22,0,0,0-8.82,2.87l-14.47,14.46a6.05,6.05,0,0,1-8.57,0L100.59,87.08a6.07,6.07,0,0,1,0-8.58l16.75-16.75a10.22,10.22,0,0,1,14.45,0l25.48,25.48A1.64,1.64,0,0,1,155.85,90Z"/><path class="cls-3" d="M135.35,57.33l3.72.59a10.19,10.19,0,0,0,8.82-2.87l14.46-14.46a6.07,6.07,0,0,1,8.58,0l19.68,19.69a6.07,6.07,0,0,1,0,8.58L173.86,85.61a10.22,10.22,0,0,1-14.45,0L133.93,60.13A1.65,1.65,0,0,1,135.35,57.33Z"/></svg>