<svg id="Layer_1" data-name="Layer 1" xmlns="http://www.w3.org/2000/svg" viewBox="0 0 349.35 69.73"><defs><style>.cls-1{fill:#fff;}.cls-2{fill:#ffcc05;}.cls-3{fill:#662d91;}</style></defs><title>Logo_Negative_Horizontal</title><path class="cls-1" d="M113.5,23.32a3.75,3.75,0,0,1-4.73,1.79h0a8,8,0,0,0-2.86-.57,4.55,4.55,0,0,0-2.85.83,2.57,2.57,0,0,0-1.11,2.16,2.2,2.2,0,0,0,.55,1.52,4.89,4.89,0,0,0,1.45,1,11.45,11.45,0,0,0,2,.76c.75.22,1.5.45,2.23.69a14,14,0,0,1,6.47,3.94,9.68,9.68,0,0,1,2,6.42,12.5,12.5,0,0,1-.9,4.84,10,10,0,0,1-2.62,3.7,12.07,12.07,0,0,1-4.24,2.4,17.57,17.57,0,0,1-5.68.85,20.89,20.89,0,0,1-12.2-3.91l1.24-2.35a5.11,5.11,0,0,1,6.59-2.27h0a9.51,9.51,0,0,0,3.91.88,4.63,4.63,0,0,0,3.29-1,3,3,0,0,0,1.09-2.3,3.2,3.2,0,0,0-.28-1.36A2.89,2.89,0,0,0,106,40.3a6.88,6.88,0,0,0-1.68-.9c-.69-.28-1.53-.59-2.51-.92-1.17-.37-2.31-.78-3.43-1.22a10.77,10.77,0,0,1-3-1.78A8.13,8.13,0,0,1,93.3,32.7a9.81,9.81,0,0,1-.81-4.26,12.41,12.41,0,0,1,.85-4.67,10.3,10.3,0,0,1,2.4-3.59,10.59,10.59,0,0,1,3.77-2.33,14.37,14.37,0,0,1,5-.83,21.75,21.75,0,0,1,5.39.72,23.53,23.53,0,0,1,5.38,2.09Z"/><path class="cls-1" d="M120.12,29.08h5.43a2.9,2.9,0,0,1,2.9,2.9h0a10.8,10.8,0,0,1,7.64-3.26,8.88,8.88,0,0,1,8,4.42,9,9,0,0,1,8-4.47,10.1,10.1,0,0,1,3.13.48,6.57,6.57,0,0,1,2.53,1.52,7.4,7.4,0,0,1,1.68,2.7,11.51,11.51,0,0,1,.62,4V52.7h-3.29a5,5,0,0,1-5-5v-6.6a14,14,0,0,0-.26-3,4.56,4.56,0,0,0-.73-1.8,2.4,2.4,0,0,0-1.13-.87,3.92,3.92,0,0,0-1.38-.23q-4,0-4,5.85V52.7H141a5,5,0,0,1-5.05-5v-6.6a16.12,16.12,0,0,0-.23-3,5.4,5.4,0,0,0-.67-1.87,2.23,2.23,0,0,0-1.13-.94,4.61,4.61,0,0,0-1.61-.26,4.71,4.71,0,0,0-1.47.23,2.69,2.69,0,0,0-1.22.9,5,5,0,0,0-.83,1.84,12.85,12.85,0,0,0-.3,3.07V52.7h-8.33Z"/><path class="cls-1" d="M184.9,29.08h6V52.7h-5.76a2.62,2.62,0,0,1-2.62-2.62h0a8.75,8.75,0,0,1-7.23,3.36,11.7,11.7,0,0,1-4.74-.94,11.54,11.54,0,0,1-3.78-2.65,12.33,12.33,0,0,1-2.51-4,13.62,13.62,0,0,1-.89-5,13.4,13.4,0,0,1,.87-4.81,12.41,12.41,0,0,1,2.44-4,11.57,11.57,0,0,1,3.73-2.69,11.37,11.37,0,0,1,4.79-1,9.66,9.66,0,0,1,7.32,3.08h0A2.35,2.35,0,0,1,184.9,29.08ZM172.05,40.82a5.56,5.56,0,0,0,1.54,3.87,5.05,5.05,0,0,0,1.71,1.15,5.41,5.41,0,0,0,2.14.42,5.31,5.31,0,0,0,2.09-.42,5.05,5.05,0,0,0,1.71-1.15,6.07,6.07,0,0,0,1.15-1.7,5,5,0,0,0,.43-2.07,5.16,5.16,0,0,0-.43-2.1,5.89,5.89,0,0,0-1.15-1.72,5.08,5.08,0,0,0-1.71-1.16,5.48,5.48,0,0,0-2.09-.41,5.59,5.59,0,0,0-2.14.41,5.08,5.08,0,0,0-1.71,1.16,5.61,5.61,0,0,0-1.12,1.68A5,5,0,0,0,172.05,40.82Z"/><path class="cls-1" d="M195.12,29.08h4.46A3.87,3.87,0,0,1,203.45,33h0a8.09,8.09,0,0,1,3.27-2.74,8.8,8.8,0,0,1,4.51-1.13H212a4.4,4.4,0,0,1,.89.1v4.7a2,2,0,0,1-2.31,2,9,9,0,0,0-1.28-.09,5.37,5.37,0,0,0-4.35,1.72,7.63,7.63,0,0,0-1.45,5V52.7h-8.33Z"/><path class="cls-1" d="M226.75,36V52.7h-8.34V36h-2.76v-7h2.76V22h1.25a7.1,7.1,0,0,1,7.09,7.09h4.74v7Z"/><path class="cls-1" d="M263,17h8.33V32.08a9.12,9.12,0,0,1,3.45-2.79,10.93,10.93,0,0,1,4.1-.71c3,0,5.22.82,6.74,2.46a9.4,9.4,0,0,1,2.28,6.65v15h-3.58A4.75,4.75,0,0,1,279.6,48V40.78a12,12,0,0,0-.28-2.9,3.35,3.35,0,0,0-.92-1.71,3.91,3.91,0,0,0-2.67-1,4.12,4.12,0,0,0-3.24,1.26,5.24,5.24,0,0,0-1.13,3.62V52.7H263Z"/><path class="cls-1" d="M299.63,42.3q0,5.39,5.06,5.38a4.51,4.51,0,0,0,4.1-2.21h3.83a2.6,2.6,0,0,1,2,4.26q-3.25,3.85-10,3.85a16,16,0,0,1-5.48-.9,12.28,12.28,0,0,1-4.26-2.55,11.44,11.44,0,0,1-2.74-4,13.15,13.15,0,0,1-1-5.16,14.7,14.7,0,0,1,.92-5.32,11.28,11.28,0,0,1,2.63-4,11.67,11.67,0,0,1,4.12-2.55,15.54,15.54,0,0,1,5.45-.9,15.23,15.23,0,0,1,5.39.9,10.79,10.79,0,0,1,4.05,2.6,11.1,11.1,0,0,1,2.53,4.17,16.3,16.3,0,0,1,.88,5.54v.88Zm9.76-4.84a5,5,0,0,0-1.71-2.8,5.28,5.28,0,0,0-6.28,0,4.57,4.57,0,0,0-1.54,2.85Z"/><path class="cls-1" d="M328.77,17V52.7h-4.51a3.82,3.82,0,0,1-3.82-3.82V17Z"/><path class="cls-1" d="M343.5,36V48.35a4.34,4.34,0,0,1-4.34,4.35h-4V36h-3v-4a3,3,0,0,1,3-3h0V27.61a16.11,16.11,0,0,1,.55-4.7,8.27,8.27,0,0,1,1.48-2.73A10.3,10.3,0,0,1,339.57,18a11.32,11.32,0,0,1,2.92-1.43,9.9,9.9,0,0,1,3.09-.51,7.55,7.55,0,0,1,1.95.24,10.42,10.42,0,0,1,1.82.64V24.2a10.11,10.11,0,0,0-1.54-.62,5.33,5.33,0,0,0-1.5-.21,3.42,3.42,0,0,0-1,.17,2.14,2.14,0,0,0-1,.66,2.86,2.86,0,0,0-.63,1.45,17,17,0,0,0-.16,2.56v.87h5.85v7Z"/><path class="cls-1" d="M256.41,23.32a3.75,3.75,0,0,1-4.73,1.79h0a7.86,7.86,0,0,0-2.85-.57,4.6,4.6,0,0,0-2.86.83,2.58,2.58,0,0,0-1.1,2.16,2.15,2.15,0,0,0,.55,1.52,4.76,4.76,0,0,0,1.45,1,11.45,11.45,0,0,0,2,.76c.75.22,1.49.45,2.23.69a14,14,0,0,1,6.47,3.94,9.68,9.68,0,0,1,2.05,6.42,12.5,12.5,0,0,1-.9,4.84,10,10,0,0,1-2.62,3.7,12.16,12.16,0,0,1-4.24,2.4,17.57,17.57,0,0,1-5.68.85A20.94,20.94,0,0,1,234,49.76l1.25-2.35a5.11,5.11,0,0,1,6.59-2.27h0a9.51,9.51,0,0,0,3.91.88,4.65,4.65,0,0,0,3.29-1,3.07,3.07,0,0,0,1.08-2.3,3.2,3.2,0,0,0-.27-1.36,3,3,0,0,0-.92-1.05,6.88,6.88,0,0,0-1.68-.9c-.69-.28-1.53-.59-2.51-.92-1.17-.37-2.31-.78-3.43-1.22a11,11,0,0,1-3-1.78,8.11,8.11,0,0,1-2.11-2.78,9.81,9.81,0,0,1-.81-4.26,12.41,12.41,0,0,1,.85-4.67,10.3,10.3,0,0,1,2.4-3.59,10.59,10.59,0,0,1,3.77-2.33,14.37,14.37,0,0,1,5-.83,21.61,21.61,0,0,1,5.38.72,23.42,23.42,0,0,1,5.39,2.09Z"/><rect class="cls-1" width="69.73" height="69.73" rx="20.61"/><path class="cls-2" d="M40.92,44.52l-2.2-.34a6,6,0,0,0-5.21,1.69L25,54.42a3.59,3.59,0,0,1-5.07,0L8.26,42.78a3.59,3.59,0,0,1,0-5.07l9.9-9.9a6,6,0,0,1,8.54,0L41.76,42.87A1,1,0,0,1,40.92,44.52Z"/><path class="cls-3" d="M28.8,25.2l2.2.35a6,6,0,0,0,5.21-1.7l8.55-8.54a3.59,3.59,0,0,1,5.07,0L61.47,26.94a3.59,3.59,0,0,1,0,5.07l-9.9,9.9a6,6,0,0,1-8.54,0L28,26.85A1,1,0,0,1,28.8,25.2Z"/></svg>