<svg id="Layer_1" data-name="Layer 1" xmlns="http://www.w3.org/2000/svg" viewBox="0 0 258.29 171.2"><defs><style>.cls-1{fill:#fff;}.cls-2{fill:#ffcc05;}.cls-3{fill:#662d91;}</style></defs><title>Logo_Negative_Vertical</title><path class="cls-1" d="M22.44,141.08a3.77,3.77,0,0,1-4.73,1.79h0a7.88,7.88,0,0,0-2.85-.58,4.66,4.66,0,0,0-2.86.83,2.59,2.59,0,0,0-1.1,2.17,2.15,2.15,0,0,0,.55,1.52,4.76,4.76,0,0,0,1.45,1,12.16,12.16,0,0,0,2,.76c.76.22,1.5.45,2.24.69a14.07,14.07,0,0,1,6.47,3.94,9.73,9.73,0,0,1,2,6.42,12.53,12.53,0,0,1-.9,4.84,10.14,10.14,0,0,1-2.63,3.7,12.11,12.11,0,0,1-4.23,2.4,17.91,17.91,0,0,1-5.69.85A20.9,20.9,0,0,1,0,167.51l1.25-2.35a5.12,5.12,0,0,1,6.58-2.27l0,0a9.72,9.72,0,0,0,3.92.88,4.65,4.65,0,0,0,3.29-1,3.13,3.13,0,0,0,.8-3.66,3,3,0,0,0-.92-1.06,7.25,7.25,0,0,0-1.68-.89c-.69-.28-1.52-.59-2.51-.93-1.16-.36-2.31-.77-3.43-1.22a10.65,10.65,0,0,1-3-1.77,8.26,8.26,0,0,1-2.12-2.78,10,10,0,0,1-.8-4.26,12.31,12.31,0,0,1,.85-4.68,10.46,10.46,0,0,1,2.39-3.59,10.76,10.76,0,0,1,3.78-2.32,14.31,14.31,0,0,1,5-.83,22.14,22.14,0,0,1,5.39.71,24.1,24.1,0,0,1,5.39,2.1Z"/><path class="cls-1" d="M29.05,146.84h5.43a2.9,2.9,0,0,1,2.9,2.9h0A10.8,10.8,0,0,1,45,146.47a8.9,8.9,0,0,1,8,4.42,8.94,8.94,0,0,1,8-4.46,10.05,10.05,0,0,1,3.13.48,6.38,6.38,0,0,1,2.53,1.52,7.18,7.18,0,0,1,1.68,2.69,11.34,11.34,0,0,1,.62,4v15.33H65.73a5,5,0,0,1-5.05-5.05v-6.6a14,14,0,0,0-.25-2.94,4.72,4.72,0,0,0-.74-1.8,2.4,2.4,0,0,0-1.13-.87,3.92,3.92,0,0,0-1.38-.23q-4,0-4,5.84v11.65H49.89a5,5,0,0,1-5-5.05v-6.6a15.42,15.42,0,0,0-.23-3A5.43,5.43,0,0,0,44,154a2.29,2.29,0,0,0-1.13-.95,4.9,4.9,0,0,0-1.61-.25,4.73,4.73,0,0,0-1.48.23,2.74,2.74,0,0,0-1.22.9,4.92,4.92,0,0,0-.83,1.84,12.7,12.7,0,0,0-.3,3.06v11.65H29.05Z"/><path class="cls-1" d="M93.83,146.84h6v23.62H94.11a2.62,2.62,0,0,1-2.63-2.62h0a8.75,8.75,0,0,1-7.23,3.36,11.7,11.7,0,0,1-4.74-.95,11.33,11.33,0,0,1-3.77-2.64,12.16,12.16,0,0,1-2.51-4,13.66,13.66,0,0,1-.9-5,13.4,13.4,0,0,1,.87-4.81,12.43,12.43,0,0,1,2.45-4,11.31,11.31,0,0,1,8.51-3.68,9.59,9.59,0,0,1,7.32,3.08h0A2.35,2.35,0,0,1,93.83,146.84ZM81,158.58a5.41,5.41,0,0,0,.41,2.14,5.51,5.51,0,0,0,1.13,1.73,4.92,4.92,0,0,0,1.7,1.15,5.41,5.41,0,0,0,2.14.42,5.32,5.32,0,0,0,2.1-.42,5,5,0,0,0,1.7-1.15,5.86,5.86,0,0,0,1.15-1.7,5,5,0,0,0,.44-2.07,5.17,5.17,0,0,0-.44-2.1,5.87,5.87,0,0,0-1.15-1.73,5.16,5.16,0,0,0-1.7-1.15,5.5,5.5,0,0,0-2.1-.41,5.59,5.59,0,0,0-2.14.41,5.06,5.06,0,0,0-1.7,1.15,5.91,5.91,0,0,0-1.13,1.68A5,5,0,0,0,81,158.58Z"/><path class="cls-1" d="M104.05,146.84h4.47a3.86,3.86,0,0,1,3.86,3.87h0a8.09,8.09,0,0,1,3.27-2.74,8.84,8.84,0,0,1,4.52-1.13h.71a5.25,5.25,0,0,1,.9.09v4.71a2,2,0,0,1-2.32,2,8.82,8.82,0,0,0-1.27-.1,5.35,5.35,0,0,0-4.35,1.73,7.63,7.63,0,0,0-1.46,5v10.13h-8.33Z"/><path class="cls-1" d="M135.68,153.79v16.67h-8.33V153.79h-2.76v-6.95h2.76v-7.09h1.24a7.09,7.09,0,0,1,7.09,7.09h4.74v6.95Z"/><path class="cls-1" d="M172,134.78h8.33v15.05a9.18,9.18,0,0,1,3.46-2.78,10.68,10.68,0,0,1,4.09-.71q4.47,0,6.75,2.46a9.4,9.4,0,0,1,2.28,6.65v15h-3.58a4.76,4.76,0,0,1-4.76-4.75v-7.17a12.56,12.56,0,0,0-.27-2.9,3.43,3.43,0,0,0-.92-1.71,3.94,3.94,0,0,0-2.67-1,4.12,4.12,0,0,0-3.25,1.26,5.29,5.29,0,0,0-1.13,3.62v12.61H172Z"/><path class="cls-1" d="M208.56,160.06q0,5.38,5.07,5.38a4.5,4.5,0,0,0,4.09-2.21h3.84a2.6,2.6,0,0,1,2,4.26q-3.26,3.84-10,3.85a16,16,0,0,1-5.48-.9,12.15,12.15,0,0,1-4.26-2.56,11.39,11.39,0,0,1-2.74-4,13.24,13.24,0,0,1-1-5.15,14.45,14.45,0,0,1,.92-5.32,11.25,11.25,0,0,1,2.62-4,11.61,11.61,0,0,1,4.12-2.55,15.55,15.55,0,0,1,5.46-.9,15.27,15.27,0,0,1,5.39.9,10.82,10.82,0,0,1,4,2.6,11.27,11.27,0,0,1,2.53,4.16,16.66,16.66,0,0,1,.87,5.55v.88Zm9.76-4.84a5,5,0,0,0-1.7-2.81,5.28,5.28,0,0,0-6.29,0,4.59,4.59,0,0,0-1.54,2.85Z"/><path class="cls-1" d="M237.71,134.78v35.68h-4.52a3.82,3.82,0,0,1-3.82-3.82V134.78Z"/><path class="cls-1" d="M252.44,153.79v12.32a4.35,4.35,0,0,1-4.35,4.35h-4V153.79h-3v-4a3,3,0,0,1,3-3h0v-1.47a16.07,16.07,0,0,1,.56-4.7,8.2,8.2,0,0,1,1.47-2.74,10.92,10.92,0,0,1,2.37-2.18,11.47,11.47,0,0,1,2.92-1.43,10,10,0,0,1,3.09-.51,8,8,0,0,1,2,.23,11.73,11.73,0,0,1,1.82.65V142a10.2,10.2,0,0,0-1.55-.62,5.21,5.21,0,0,0-1.49-.21,3.81,3.81,0,0,0-1,.16,2.27,2.27,0,0,0-1,.67,2.82,2.82,0,0,0-.62,1.45,15.67,15.67,0,0,0-.16,2.56v.87h5.85v6.95Z"/><path class="cls-1" d="M165.35,141.08a3.77,3.77,0,0,1-4.73,1.79h0a7.93,7.93,0,0,0-2.86-.58,4.65,4.65,0,0,0-2.85.83,2.6,2.6,0,0,0-1.11,2.17,2.16,2.16,0,0,0,.56,1.52,4.64,4.64,0,0,0,1.45,1,12.16,12.16,0,0,0,2,.76c.75.22,1.5.45,2.24.69a14,14,0,0,1,6.46,3.94,9.68,9.68,0,0,1,2.05,6.42,12.72,12.72,0,0,1-.89,4.84,10.14,10.14,0,0,1-2.63,3.7,12.11,12.11,0,0,1-4.23,2.4,17.91,17.91,0,0,1-5.69.85,20.9,20.9,0,0,1-12.2-3.92l1.25-2.35a5.12,5.12,0,0,1,6.58-2.27l0,0a9.71,9.71,0,0,0,3.91.88,4.66,4.66,0,0,0,3.3-1,3.13,3.13,0,0,0,.8-3.66,3,3,0,0,0-.92-1.06,7.25,7.25,0,0,0-1.68-.89c-.69-.28-1.53-.59-2.51-.93-1.16-.36-2.31-.77-3.43-1.22a10.51,10.51,0,0,1-3-1.77,8.13,8.13,0,0,1-2.12-2.78,9.81,9.81,0,0,1-.8-4.26,12.31,12.31,0,0,1,.85-4.68,10.46,10.46,0,0,1,2.39-3.59,10.76,10.76,0,0,1,3.78-2.32,14.31,14.31,0,0,1,5-.83,22.14,22.14,0,0,1,5.39.71,24.1,24.1,0,0,1,5.39,2.1Z"/><rect class="cls-1" x="70.16" width="117.96" height="117.96" rx="34.87"/><path class="cls-2" d="M139.39,75.33l-3.71-.59a10.19,10.19,0,0,0-8.82,2.87L112.39,92.07a6.05,6.05,0,0,1-8.57,0L84.13,72.38a6.07,6.07,0,0,1,0-8.58l16.75-16.75a10.22,10.22,0,0,1,14.45,0l25.48,25.48A1.65,1.65,0,0,1,139.39,75.33Z"/><path class="cls-3" d="M118.89,42.64l3.72.59a10.22,10.22,0,0,0,8.82-2.87L145.89,25.9a6.07,6.07,0,0,1,8.58,0l19.69,19.68a6.08,6.08,0,0,1,0,8.58L157.4,70.91a10.22,10.22,0,0,1-14.45,0L117.47,45.43A1.65,1.65,0,0,1,118.89,42.64Z"/></svg>