<svg id="Layer_1" data-name="Layer 1" xmlns="http://www.w3.org/2000/svg" viewBox="0 0 258.29 37.52"><defs><style>.cls-1{fill:#fff;}</style></defs><title>Logotype_Negative</title><path class="cls-1" d="M22.44,7.17A3.76,3.76,0,0,1,17.71,9h0a7.68,7.68,0,0,0-2.85-.58A4.66,4.66,0,0,0,12,9.21a2.56,2.56,0,0,0-1.1,2.16,2.14,2.14,0,0,0,.55,1.52,4.78,4.78,0,0,0,1.45,1,13.12,13.12,0,0,0,2,.76c.76.21,1.5.44,2.24.69a14,14,0,0,1,6.47,3.93,9.78,9.78,0,0,1,2,6.43,12.45,12.45,0,0,1-.9,4.83,10.18,10.18,0,0,1-2.63,3.71,12.1,12.1,0,0,1-4.23,2.39,17.63,17.63,0,0,1-5.69.85A20.89,20.89,0,0,1,0,33.61l1.25-2.35A5.1,5.1,0,0,1,7.83,29l0,0a9.7,9.7,0,0,0,3.92.87,4.69,4.69,0,0,0,3.29-1,3.09,3.09,0,0,0,1.08-2.3,3,3,0,0,0-.28-1.36A2.83,2.83,0,0,0,15,24.15a7.64,7.64,0,0,0-1.68-.9c-.69-.28-1.52-.58-2.51-.92-1.16-.37-2.31-.77-3.43-1.22a11.15,11.15,0,0,1-3-1.77,8.4,8.4,0,0,1-2.12-2.79,10,10,0,0,1-.8-4.26,12.25,12.25,0,0,1,.85-4.67A10.37,10.37,0,0,1,4.67,4,10.78,10.78,0,0,1,8.45,1.7a14.31,14.31,0,0,1,5-.83,21.69,21.69,0,0,1,5.39.72,23.6,23.6,0,0,1,5.39,2.09Z"/><path class="cls-1" d="M29.05,12.94h5.43a2.9,2.9,0,0,1,2.9,2.9h0A10.8,10.8,0,0,1,45,12.57,8.88,8.88,0,0,1,53,17a8.93,8.93,0,0,1,8-4.47,9.77,9.77,0,0,1,3.13.49,6.38,6.38,0,0,1,2.53,1.52,7.1,7.1,0,0,1,1.68,2.69,11.28,11.28,0,0,1,.62,4V36.56H65.73a5,5,0,0,1-5.05-5.05v-6.6A14.09,14.09,0,0,0,60.43,22a4.66,4.66,0,0,0-.74-1.79,2.49,2.49,0,0,0-1.13-.88,4.16,4.16,0,0,0-1.38-.23q-4,0-4,5.85V36.56H49.89a5,5,0,0,1-5-5.05v-6.6a15.29,15.29,0,0,0-.23-3A5.49,5.49,0,0,0,44,20.07a2.27,2.27,0,0,0-1.13-.94,4.65,4.65,0,0,0-1.61-.25,4.46,4.46,0,0,0-1.48.23,2.64,2.64,0,0,0-1.22.89,5,5,0,0,0-.83,1.85,12.7,12.7,0,0,0-.3,3.06V36.56H29.05Z"/><path class="cls-1" d="M93.83,12.94h6V36.56H94.11a2.63,2.63,0,0,1-2.63-2.63h0a8.75,8.75,0,0,1-7.23,3.36,11.7,11.7,0,0,1-4.74-.94,11.35,11.35,0,0,1-3.77-2.65,12.12,12.12,0,0,1-2.51-4,13.7,13.7,0,0,1-.9-5,13.36,13.36,0,0,1,.87-4.81,12.48,12.48,0,0,1,2.45-4,11.53,11.53,0,0,1,3.72-2.69,11.4,11.4,0,0,1,4.79-1,9.6,9.6,0,0,1,7.32,3.09h0A2.35,2.35,0,0,1,93.83,12.94ZM81,24.68a5.41,5.41,0,0,0,.41,2.14,5.63,5.63,0,0,0,1.13,1.73,5.06,5.06,0,0,0,1.7,1.15,5.59,5.59,0,0,0,2.14.41,5.5,5.5,0,0,0,2.1-.41,5.16,5.16,0,0,0,1.7-1.15,5.91,5.91,0,0,0,1.15-1.71,5,5,0,0,0,.44-2.07,5.12,5.12,0,0,0-.44-2.09A5.75,5.75,0,0,0,90.17,21a5,5,0,0,0-1.7-1.15,5.32,5.32,0,0,0-2.1-.42,5.41,5.41,0,0,0-2.14.42A4.92,4.92,0,0,0,82.53,21a5.64,5.64,0,0,0-1.13,1.68A5,5,0,0,0,81,24.68Z"/><path class="cls-1" d="M104.05,12.94h4.47a3.86,3.86,0,0,1,3.86,3.86h0a8.07,8.07,0,0,1,3.27-2.73,8.74,8.74,0,0,1,4.52-1.13h.71a5.25,5.25,0,0,1,.9.09v4.7a2,2,0,0,1-2.32,2,8.83,8.83,0,0,0-1.27-.09,5.35,5.35,0,0,0-4.35,1.73,7.63,7.63,0,0,0-1.46,5V36.56h-8.33Z"/><path class="cls-1" d="M135.68,19.89V36.56h-8.33V19.89h-2.76v-7h2.76V5.85h1.24a7.08,7.08,0,0,1,7.09,7.09h4.74v7Z"/><path class="cls-1" d="M172,.87h8.33V15.93a9.21,9.21,0,0,1,3.46-2.79,10.87,10.87,0,0,1,4.09-.71q4.47,0,6.75,2.46a9.43,9.43,0,0,1,2.28,6.66v15h-3.58a4.76,4.76,0,0,1-4.76-4.76V24.63a12.68,12.68,0,0,0-.27-2.9,3.39,3.39,0,0,0-.92-1.7,3.9,3.9,0,0,0-2.67-1,4.1,4.1,0,0,0-3.25,1.27,5.26,5.26,0,0,0-1.13,3.61V36.56H172Z"/><path class="cls-1" d="M208.56,26.15q0,5.38,5.07,5.39a4.52,4.52,0,0,0,4.09-2.21h3.84a2.6,2.6,0,0,1,2,4.25q-3.26,3.86-10,3.85a16,16,0,0,1-5.48-.9A12.28,12.28,0,0,1,203.84,34a11.58,11.58,0,0,1-2.74-4,13.29,13.29,0,0,1-1-5.16,14.52,14.52,0,0,1,.92-5.32,11.13,11.13,0,0,1,2.62-4A11.64,11.64,0,0,1,207.8,13a15.55,15.55,0,0,1,5.46-.9,15.27,15.27,0,0,1,5.39.9,11.08,11.08,0,0,1,4,2.6,11.39,11.39,0,0,1,2.53,4.17,16.58,16.58,0,0,1,.87,5.55v.87Zm9.76-4.83a4.94,4.94,0,0,0-1.7-2.81,4.75,4.75,0,0,0-3.13-1.06,4.83,4.83,0,0,0-3.16,1,4.64,4.64,0,0,0-1.54,2.86Z"/><path class="cls-1" d="M237.71.87V36.56h-4.52a3.82,3.82,0,0,1-3.82-3.83V.87Z"/><path class="cls-1" d="M252.44,19.89V32.21a4.35,4.35,0,0,1-4.35,4.35h-4V19.89h-3v-4a3,3,0,0,1,3-3h0V11.46a16,16,0,0,1,.56-4.69A8.11,8.11,0,0,1,246.13,4a11,11,0,0,1,2.37-2.19A11.82,11.82,0,0,1,251.42.41a10.28,10.28,0,0,1,3.09-.5,7.58,7.58,0,0,1,2,.23,11.66,11.66,0,0,1,1.82.64V8.06a8.47,8.47,0,0,0-1.55-.62,5.21,5.21,0,0,0-1.49-.21,3.46,3.46,0,0,0-1,.16,2.27,2.27,0,0,0-1,.67,2.82,2.82,0,0,0-.62,1.45,15.62,15.62,0,0,0-.16,2.55v.88h5.85v7Z"/><path class="cls-1" d="M165.35,7.17A3.76,3.76,0,0,1,160.62,9h0a7.73,7.73,0,0,0-2.86-.58,4.65,4.65,0,0,0-2.85.83,2.57,2.57,0,0,0-1.11,2.16,2.14,2.14,0,0,0,.56,1.52,4.66,4.66,0,0,0,1.45,1,13.12,13.12,0,0,0,2,.76c.75.21,1.5.44,2.24.69a13.89,13.89,0,0,1,6.46,3.93,9.72,9.72,0,0,1,2.05,6.43,12.63,12.63,0,0,1-.89,4.83A10.18,10.18,0,0,1,165,34.28a12.1,12.1,0,0,1-4.23,2.39,17.63,17.63,0,0,1-5.69.85,20.89,20.89,0,0,1-12.2-3.91l1.25-2.35A5.1,5.1,0,0,1,150.74,29l0,0a9.69,9.69,0,0,0,3.91.87,4.7,4.7,0,0,0,3.3-1,3.09,3.09,0,0,0,1.08-2.3,3,3,0,0,0-.28-1.36,2.83,2.83,0,0,0-.92-1.06,7.64,7.64,0,0,0-1.68-.9c-.69-.28-1.53-.58-2.51-.92-1.16-.37-2.31-.77-3.43-1.22a11,11,0,0,1-3-1.77,8.27,8.27,0,0,1-2.12-2.79,9.81,9.81,0,0,1-.8-4.26,12.25,12.25,0,0,1,.85-4.67A10.37,10.37,0,0,1,147.58,4a10.78,10.78,0,0,1,3.78-2.33,14.31,14.31,0,0,1,5-.83,21.69,21.69,0,0,1,5.39.72,23.6,23.6,0,0,1,5.39,2.09Z"/></svg>