<svg id="Layer_1" data-name="Layer 1" xmlns="http://www.w3.org/2000/svg" viewBox="0 0 144.45 143.57"><defs><style>.cls-1{fill:#662d91;}.cls-2{fill:#ffcc05;}.cls-3{fill:#fff;}</style></defs><title>Artboard 2</title><rect class="cls-1" y="-0.88" width="144.45" height="144.45" rx="35.84"/><path class="cls-2" d="M84.78,91.36l-4.55-.72a12.52,12.52,0,0,0-10.8,3.51L51.72,111.86a7.42,7.42,0,0,1-10.5,0L17.11,87.75a7.42,7.42,0,0,1,0-10.5L37.62,56.74a12.5,12.5,0,0,1,17.69,0l31.21,31.2A2,2,0,0,1,84.78,91.36Z"/><path class="cls-3" d="M59.68,51.33l4.55.72A12.5,12.5,0,0,0,75,48.54L92.74,30.83a7.42,7.42,0,0,1,10.5,0l24.11,24.11a7.42,7.42,0,0,1,0,10.5L106.83,86a12.52,12.52,0,0,1-17.69,0L57.94,54.75A2,2,0,0,1,59.68,51.33Z"/></svg>