<svg id="Layer_1" data-name="Layer 1" xmlns="http://www.w3.org/2000/svg" viewBox="0 0 58.33 43.48"><defs><style>.cls-1{fill:#ffcc05;}.cls-2{fill:#fff;}</style></defs><title>Symbol_Negative</title><path class="cls-1" d="M35.22,31.4,33,31.06a6,6,0,0,0-5.21,1.69L19.27,41.3a3.59,3.59,0,0,1-5.07,0L2.56,29.66a3.59,3.59,0,0,1,0-5.07l9.9-9.9a6,6,0,0,1,8.54,0L36.06,29.75A1,1,0,0,1,35.22,31.4Z"/><path class="cls-2" d="M23.11,12.08l2.19.35a6.05,6.05,0,0,0,5.22-1.7l8.55-8.54a3.57,3.57,0,0,1,5.06,0L55.77,13.82a3.59,3.59,0,0,1,0,5.07l-9.9,9.9a6,6,0,0,1-8.54,0L22.27,13.73A1,1,0,0,1,23.11,12.08Z"/></svg>